<svg width="30" height="30" viewBox="0 0 30 30" fill="none" xmlns="http://www.w3.org/2000/svg">
<path fill-rule="evenodd" clip-rule="evenodd" d="M20.1714 3.99193C24.1927 8.01319 24.4943 14.3606 21.104 18.8213L29.8274 27.5447L27.7603 29.6119L19.057 20.9086C14.5884 24.4461 8.12327 24.1914 4.04759 20.1157C-0.346514 15.7216 -0.299204 8.55007 4.15326 4.0976C8.60573 -0.354868 15.7773 -0.402178 20.1714 3.99193ZM19.3445 4.81879C23.288 8.76222 23.2455 15.1982 19.2497 19.194C15.2539 23.1899 8.81789 23.2323 4.87446 19.2889C0.931026 15.3454 0.973484 8.90943 4.96929 4.91362C8.96509 0.917818 15.4011 0.875361 19.3445 4.81879Z" fill="#2B4074"/>
</svg>
